<svg width="14" height="17" viewBox="0 0 14 17" fill="none" xmlns="http://www.w3.org/2000/svg">
<path d="M1 15.4063C1 15.8289 1.15804 16.2343 1.43934 16.5332C1.72064 16.8321 2.10218 17 2.5 17H11.5C11.8978 17 12.2794 16.8321 12.5607 16.5332C12.842 16.2343 13 15.8289 13 15.4063V4.25H1V15.4063ZM9.5 6.90625C9.5 6.76536 9.55268 6.63023 9.64645 6.5306C9.74021 6.43097 9.86739 6.375 10 6.375C10.1326 6.375 10.2598 6.43097 10.3536 6.5306C10.4473 6.63023 10.5 6.76536 10.5 6.90625V14.3438C10.5 14.4846 10.4473 14.6198 10.3536 14.7194C10.2598 14.819 10.1326 14.875 10 14.875C9.86739 14.875 9.74021 14.819 9.64645 14.7194C9.55268 14.6198 9.5 14.4846 9.5 14.3438V6.90625ZM6.5 6.90625C6.5 6.76536 6.55268 6.63023 6.64645 6.5306C6.74021 6.43097 6.86739 6.375 7 6.375C7.13261 6.375 7.25979 6.43097 7.35355 6.5306C7.44732 6.63023 7.5 6.76536 7.5 6.90625V14.3438C7.5 14.4846 7.44732 14.6198 7.35355 14.7194C7.25979 14.819 7.13261 14.875 7 14.875C6.86739 14.875 6.74021 14.819 6.64645 14.7194C6.55268 14.6198 6.5 14.4846 6.5 14.3438V6.90625ZM3.5 6.90625C3.5 6.76536 3.55268 6.63023 3.64645 6.5306C3.74021 6.43097 3.86739 6.375 4 6.375C4.13261 6.375 4.25979 6.43097 4.35355 6.5306C4.44732 6.63023 4.5 6.76536 4.5 6.90625V14.3438C4.5 14.4846 4.44732 14.6198 4.35355 14.7194C4.25979 14.819 4.13261 14.875 4 14.875C3.86739 14.875 3.74021 14.819 3.64645 14.7194C3.55268 14.6198 3.5 14.4846 3.5 14.3438V6.90625ZM13.5 1.06251H9.75L9.45625 0.441607C9.39402 0.308866 9.29817 0.197207 9.17947 0.119191C9.06078 0.0411758 8.92395 -0.000100538 8.78438 5.82141e-06H5.2125C5.07324 -0.000562966 4.93665 0.0405594 4.81838 0.118662C4.7001 0.196764 4.60492 0.308687 4.54375 0.441607L4.25 1.06251H0.5C0.367392 1.06251 0.240215 1.11848 0.146447 1.2181C0.0526784 1.31773 0 1.45286 0 1.59376L0 2.65626C0 2.79715 0.0526784 2.93228 0.146447 3.03191C0.240215 3.13153 0.367392 3.1875 0.5 3.1875H13.5C13.6326 3.1875 13.7598 3.13153 13.8536 3.03191C13.9473 2.93228 14 2.79715 14 2.65626V1.59376C14 1.45286 13.9473 1.31773 13.8536 1.2181C13.7598 1.11848 13.6326 1.06251 13.5 1.06251Z" fill="#DC3D40"/>
</svg>
