<svg width="151" height="115" viewBox="0 0 151 115" fill="none" xmlns="http://www.w3.org/2000/svg">
<path d="M10.7062 109.035C10.7062 109.035 -3.26799 99.2157 3.1569 86.8748C9.58312 74.5339 22.4342 55.5864 16.0031 45.925C9.58313 36.2668 8.92846 5.32283 45.8765 0.579271C75.3458 -3.20162 84.3027 12.3624 88.8702 22.9846C94.8947 36.9966 89.5107 62.5766 117.687 65.9513C145.87 69.3246 161.968 83.2597 141.781 105.972C132.959 115.897 10.7062 109.035 10.7062 109.035Z" fill="#C9D6F2"/>
<path d="M61.1637 101.311C40.3677 105.856 23.4303 99.5453 29.2103 88.8075C34.9868 78.0697 31.4468 76.716 26.9908 73.3382C22.5348 69.9617 12.5232 60.5564 22.2761 50.2262C32.041 39.9017 24.6237 36.9062 21.5752 30.8302C12.6703 13.1053 48.7854 5.82796 39.013 22.1409C31.677 34.384 32.0637 43.7595 41.1801 49.9888C50.3041 56.2195 52.1241 59.5053 51.721 67.2053C51.3166 74.9053 48.1672 91.2711 57.4641 90.5897C66.7539 89.9084 71.8294 98.9786 61.1637 101.311Z" fill="#EBF2FF"/>
<path d="M23.3882 28.4136C22.4225 26.579 22.1958 17.5825 30.9242 18.0487C36.2362 18.3332 33.478 25.5878 32.2731 31.1701C31.0718 36.7527 31.8927 45.5172 34.1127 49.127C38.2136 55.7847 37.3371 58.5865 32.2598 64.2985C32.2598 64.2985 29.6234 68.5407 34.4869 73.0932C39.3491 77.6452 37.4705 90.1821 43.1194 92.2136C48.7682 94.2438 51.9594 98.5754 48.0882 98.9781C44.226 99.3843 28.2051 100.941 32.422 90.3923C38.5687 75.0358 26.5856 70.4834 23.6002 67.0758C20.8629 63.9523 18.5216 56.9727 26.4607 48.2198C32.6029 41.4447 26.3496 34.0652 23.3882 28.4136Z" fill="#CBDBF4"/>
<path d="M44.9962 108.325L44.6775 109.733C44.3753 109.656 37.1326 107.835 29.3273 102.827C18.9371 96.156 12.6219 86.9986 11.0762 76.3253L12.4219 76.0938C16.0148 100.88 44.7064 108.252 44.9962 108.325Z" fill="#7585F8"/>
<path d="M12.0548 77.7488C12.0548 77.7488 4.50811 73.7452 7.63477 64.5234C7.63477 64.5234 14.3317 69.9643 12.0548 77.7488Z" fill="#7585F8"/>
<path d="M14.472 85.2879C14.472 85.2879 4.18356 88.7257 0 77.111C0 77.111 5.48756 75.0959 14.472 85.2879Z" fill="#7585F8"/>
<path d="M14.1212 85.3337C14.1212 85.3337 23.6741 80.0057 18.9128 68.6523C18.9128 68.6523 13.6972 71.355 14.1212 85.3337Z" fill="#7585F8"/>
<path d="M19.8261 93.932C19.8261 93.932 9.90785 98.468 4.61719 87.3809C4.61719 87.3809 9.88074 84.7782 19.8261 93.932Z" fill="#7585F8"/>
<path d="M19.4765 94.0103C19.4765 94.0103 28.4681 87.6787 22.6196 76.9062C22.6196 76.9062 17.6885 80.1654 19.4765 94.0103Z" fill="#7585F8"/>
<path d="M28.3647 101.441C28.3647 101.441 19.3114 107.693 12.2998 97.7447C12.2998 97.7447 17.0674 94.2256 28.3647 101.441Z" fill="#7585F8"/>
<path d="M28.0302 101.585C28.0302 101.585 35.8715 93.7245 28.3639 84.1836C28.3639 84.1836 24.0279 88.2836 28.0302 101.585Z" fill="#7585F8"/>
<path d="M37.1422 106.156C37.1422 106.156 29.9386 114.675 20.6924 107.018C20.6924 107.018 24.4417 102.318 37.1422 106.156Z" fill="#7585F8"/>
<path d="M36.8622 106.382C36.8622 106.382 42.5168 96.6535 32.8964 89.5312C32.8964 89.5312 29.7142 94.6699 36.8622 106.382Z" fill="#7585F8"/>
<path d="M98.607 108.356C118.522 113.791 135.233 108.518 130.171 97.8311C125.107 87.1476 128.603 86.0134 133.087 82.9618C137.573 79.912 147.729 71.3022 138.796 60.8169C129.857 50.3302 137.185 47.7991 140.438 42.0662C149.935 25.3414 115.326 16.5027 123.981 32.7871C130.479 45.008 129.642 54.0645 120.498 59.6454C111.359 65.2294 109.436 68.3214 109.443 75.7974C109.45 83.2747 111.691 99.2778 102.722 98.1591C93.7568 97.0369 88.3937 105.567 98.607 108.356Z" fill="#7585F8"/>
<path opacity="0.2" d="M138.799 39.6356C139.827 37.9045 140.492 29.2058 132.016 29.2227C126.86 29.2347 129.174 36.3978 130.061 41.8645C130.947 47.3293 129.719 55.7756 127.39 59.1622C123.088 65.4049 123.8 68.1613 128.433 73.944C128.433 73.944 130.772 78.1867 125.835 82.3525C120.903 86.5196 122.102 98.7542 116.533 100.441C110.959 102.126 107.654 106.164 111.38 106.746C115.106 107.329 130.546 109.633 126.977 99.2085C121.789 84.0325 133.617 80.2174 136.679 77.0649C139.485 74.176 142.096 67.5329 134.844 58.6631C129.232 51.7978 135.657 44.9609 138.799 39.6356Z" fill="#F6F5F7"/>
<path d="M95.7075 108.004L95.4053 106.158C124.713 101.369 137.391 78.4175 137.519 78.1797L139.166 79.0699C139.036 79.3033 125.952 103.063 95.7075 108.004Z" fill="#EBF2FF"/>
<path d="M137.396 79.7505C137.396 79.7505 141.224 69.8532 146.216 73.0132C148.337 74.3532 147.192 79.1563 137.396 79.7505Z" fill="#EBF2FF"/>
<path d="M135.176 82.9882C135.176 82.9882 144.931 77.35 145.95 83.0482C146.378 85.4802 142.102 88.6637 135.176 82.9882Z" fill="#EBF2FF"/>
<path d="M135.195 84.0373C135.195 84.0373 141.167 74.9266 135.019 74.0484C132.399 73.668 129.005 77.6653 135.195 84.0373Z" fill="#EBF2FF"/>
<path d="M128.697 90.6397C128.697 90.6397 135.126 81.7517 129.052 80.5935C126.465 80.0975 122.889 83.9491 128.697 90.6397Z" fill="#EBF2FF"/>
<path d="M123.002 95.6753C123.002 95.6753 129.384 86.778 123.308 85.6322C120.719 85.1375 117.155 89.0055 123.002 95.6753Z" fill="#EBF2FF"/>
<path d="M115.04 100.627C115.04 100.627 122.919 92.7671 117.284 90.6075C114.879 89.6888 110.698 92.9702 115.04 100.627Z" fill="#EBF2FF"/>
<path d="M108.145 103.766C108.145 103.766 115.8 95.7159 110.071 93.7199C107.643 92.8776 103.544 96.2572 108.145 103.766Z" fill="#EBF2FF"/>
<path d="M98.7028 106.475C98.7028 106.475 108.242 100.466 103.517 97.0122C101.5 95.5384 96.6739 97.8349 98.7028 106.475Z" fill="#EBF2FF"/>
<path d="M130.407 88.9487C130.407 88.9487 140.18 83.3074 141.187 89.0149C141.617 91.4407 137.351 94.6171 130.407 88.9487Z" fill="#EBF2FF"/>
<path d="M124.578 94.2073C124.578 94.2073 134.349 88.578 135.356 94.2793C135.791 96.7037 131.515 99.8846 124.578 94.2073Z" fill="#EBF2FF"/>
<path d="M118.176 98.4839C118.176 98.4839 128.831 94.9332 128.38 100.84C128.198 103.355 123.351 105.627 118.176 98.4839Z" fill="#EBF2FF"/>
<path d="M110.608 102.493C110.608 102.493 121.491 99.9619 120.375 105.86C119.898 108.37 114.89 110.182 110.608 102.493Z" fill="#EBF2FF"/>
<path d="M102.586 105.308C102.586 105.308 113.569 104.219 111.564 110.012C110.697 112.472 105.54 113.621 102.586 105.308Z" fill="#EBF2FF"/>
<path d="M141.291 110.718C141.291 113.046 111.299 114.934 74.3003 114.934C37.3039 114.934 7.31055 113.046 7.31055 110.718C7.31055 108.39 37.3043 106.504 74.3003 106.504C111.3 106.504 141.291 108.39 141.291 110.718Z" fill="#ACBFE2"/>
<path d="M124.971 63.2679C124.971 89.1954 103.952 110.212 78.0253 110.212C52.0964 110.212 31.0791 89.1954 31.0791 63.2679C31.0791 37.339 52.0964 16.3203 78.0253 16.3203C103.952 16.3203 124.971 37.339 124.971 63.2679Z" fill="#D086E5"/>
<path d="M82.2137 80.7149C83.5764 82.9344 82.2017 86.2615 79.1368 88.1429C76.0764 90.0229 72.4853 89.7473 71.1226 87.5264L55.4488 61.9989C54.0848 59.7775 55.4595 56.454 58.5257 54.5727C61.5862 52.6913 65.1773 52.9682 66.5399 55.1878L82.2137 80.7149Z" fill="#F6F5F7"/>
<path d="M81.6418 86.2883C79.7618 89.3487 75.7543 90.3096 72.6938 88.4296C69.6272 86.5496 68.6707 82.5421 70.5507 79.4767L92.1512 44.2732C94.0312 41.2096 98.0387 40.2501 101.104 42.1301C104.165 44.0101 105.127 48.0163 103.247 51.0798L81.6418 86.2883Z" fill="#F6F5F7"/>
<path d="M43.5708 56.7592C44.2219 56.4583 46.3606 56.2917 47.4766 57.9806C48.9819 60.241 49.5006 65.7468 52.8575 67.4055C56.225 69.0597 58.3228 67.6477 59.8508 66.8792C61.377 66.1183 61.6299 65.0912 62.5757 64.7455C63.5112 64.401 63.8766 65.5366 61.7197 67.3503C60.6788 68.2166 56.101 73.1179 51.7339 71.8935C46.0023 70.2783 39.7192 58.5174 43.5708 56.7592Z" fill="#E28C71"/>
<path d="M48.5557 92.2948C47.6157 98.0353 46.8575 110.211 49.3771 110.115C51.9037 110.017 53.2539 109.089 51.7726 108.734C50.2824 108.378 50.2299 108.209 50.2446 107.754C50.3602 104.881 52.5788 99.4148 53.4162 95.2308C54.3908 90.3757 49.3859 87.2766 48.5557 92.2948Z" fill="#F27851"/>
<path d="M48.2295 108.961C48.2295 108.961 50.4899 109.78 51.7726 108.734C51.7726 108.734 54.2708 108.944 52.7548 109.705C51.2477 110.469 48.2806 111.207 48.2295 108.961Z" fill="#6E86CC"/>
<path d="M39.3085 68.6914C39.3085 68.6914 52.3036 77.8154 54.1747 82.4807C55.8529 86.6781 51.9565 103.583 51.9565 103.583C51.9565 103.583 49.2178 104.675 46.7031 103.134L47.0325 89.9865L36.0645 79.9554L39.3085 68.6914Z" fill="#C92F3B"/>
<path d="M30.9264 93.0107C26.126 96.9738 16.9415 106.248 19.0455 107.946C21.1477 109.638 22.894 109.844 21.9433 108.522C20.9989 107.184 21.0695 107.002 21.4064 106.653C23.5237 104.423 29.15 101.574 32.7637 98.7983C36.9704 95.5792 35.1206 89.5516 30.9264 93.0107Z" fill="#F27851"/>
<path d="M18.9278 106.211C18.9278 106.211 20.1762 108.458 21.9429 108.522C21.9429 108.522 23.8047 110.442 22.0545 109.99C20.3038 109.539 17.3998 108.054 18.9278 106.211Z" fill="#6E86CC"/>
<path d="M37.3834 68.6289C37.3834 68.6289 44.1269 83.9898 42.3478 89.0609C40.7522 93.6267 25.7207 104.5 25.7207 104.5C25.7207 104.5 22.7429 103.45 21.7998 100.438L31.318 90.0787C31.318 90.0787 27.5131 78.1045 29.3811 73.6649C29.4474 73.516 29.1211 74.7222 29.1211 74.7222L37.3834 68.6289Z" fill="#E03D51"/>
<path d="M45.4947 75.4272C47.9854 72.141 49.3929 67.0477 49.4907 63.0935C49.6276 57.6104 44.7818 56.1953 41.7036 55.9046C38.6236 55.6081 33.5898 55.0113 33.796 61.845C33.9329 66.6139 32.2018 69.1046 29.7836 73.1366C29.7187 73.2433 29.6529 73.3304 29.588 73.4313C29.5774 73.4295 29.5729 73.4175 29.5729 73.4175C29.576 73.425 29.5774 73.4295 29.588 73.4313C26.1782 77.6184 42.6658 79.1539 45.4947 75.4272Z" fill="#FCDCDA"/>
<path d="M29.7825 73.1349C29.7176 73.2416 29.6518 73.3287 29.5869 73.4296C29.5763 73.4278 29.5718 73.4158 29.5718 73.4158C29.5749 73.4234 29.5763 73.4278 29.5869 73.4296C26.9474 76.6674 36.21 78.3127 41.8496 77.1785C42.7247 75.8687 38.4869 75.5198 36.918 74.2474C33.3011 71.3149 46.1989 71.0651 43.9771 69.9869C41.5785 68.8318 38.0083 69.2923 39.5798 65.7807C41.1456 62.2629 39.798 58.0611 38.3105 56.6385C36.7598 55.1514 34.1643 56.8945 33.8816 60.1305C33.8109 60.6465 33.7687 61.206 33.7945 61.8434C33.9318 66.6127 32.2007 69.1029 29.7825 73.1349Z" fill="#EFBEBD"/>
<path d="M42.1408 51.8828C42.1408 51.8828 42.8204 54.4828 40.9017 55.4424C38.9346 56.4197 44.9697 61.2277 45.0644 59.8019C45.1879 57.9628 44.4613 56.7237 45.7288 54.821L42.1408 51.8828Z" fill="#E67052"/>
<path d="M46.783 48.0663C48.0506 49.7943 48.5155 56.4507 46.6475 57.5529C45.8292 58.0249 43.0728 56.8041 41.7675 53.6716C41.2243 52.3889 40.7012 50.0667 42.2608 48.1236C42.9679 47.2392 45.3097 46.0507 46.783 48.0663Z" fill="#EE9D7F"/>
<path d="M41.2949 48.0313C39.6483 50.1006 40.3687 52.0993 40.4856 52.4664C40.9145 53.8077 42.0047 55.0575 42.3372 54.6695C42.7327 54.2064 41.2349 53.7219 41.9221 52.3939C42.6123 51.0628 41.7341 50.5939 42.1914 49.4042C42.6363 48.2188 43.5132 48.6251 46.2878 48.7122C47.4247 48.7482 47.7105 48.3615 47.6701 47.8895C46.2625 45.8717 43.0274 45.8535 41.2949 48.0313Z" fill="#062440"/>
<path d="M47.8961 49.5071C48.5726 47.9009 50.9837 48.2858 50.2153 47.1503C49.701 46.3894 49.6948 46.9623 43.9517 45.7907C41.2704 45.2449 40.7424 46.3894 40.2308 47.9005C39.757 49.296 39.9046 52.7249 41.741 54.7449C43.5713 56.76 41.6837 53.4018 42.3859 51.8831C43.0881 50.3658 43.5517 51.008 44.5619 51.2591C45.5726 51.5071 46.8055 52.0938 47.8961 49.5071Z" fill="#353A66"/>
<path d="M28.9727 77.6842L33.838 84.6593L72.9949 57.3215L78.0255 48.6211L68.1224 50.3478L28.9727 77.6842Z" fill="#494C7F"/>
<path d="M70.8301 54.2119L31.6709 81.5469L33.8402 84.6545L72.9994 57.3195L70.8301 54.2119Z" fill="#373C66"/>
<path d="M78.0253 48.6211L76.6644 50.978L75.3516 49.0904L78.0253 48.6211Z" fill="#1F1440"/>
<path d="M37.182 56.2172C37.9113 56.2758 39.1824 57.3767 39.346 59.4221C39.5762 62.1594 38.0255 67.083 40.1868 70.1963C42.3571 73.3154 44.9091 73.0927 46.6326 73.1652C48.3668 73.2403 49.0917 72.4567 50.0886 72.6074C51.0904 72.7594 50.8557 73.9487 48.054 74.4963C46.714 74.7567 40.2531 76.8483 36.9868 73.615C32.7064 69.3794 32.914 55.879 37.182 56.2172Z" fill="#E28C71"/>
</svg>
