<svg width="12" height="17" viewBox="0 0 12 17" fill="none" xmlns="http://www.w3.org/2000/svg">
<path d="M0.857143 15.4063C0.857143 15.8289 0.992602 16.2343 1.23372 16.5332C1.47484 16.8321 1.80186 17 2.14286 17H9.85714C10.1981 17 10.5252 16.8321 10.7663 16.5332C11.0074 16.2343 11.1429 15.8289 11.1429 15.4063V4.25H0.857143V15.4063ZM8.14286 6.90625C8.14286 6.76536 8.18801 6.63023 8.26838 6.5306C8.34875 6.43097 8.45776 6.375 8.57143 6.375C8.68509 6.375 8.7941 6.43097 8.87447 6.5306C8.95485 6.63023 9 6.76536 9 6.90625V14.3438C9 14.4846 8.95485 14.6198 8.87447 14.7194C8.7941 14.819 8.68509 14.875 8.57143 14.875C8.45776 14.875 8.34875 14.819 8.26838 14.7194C8.18801 14.6198 8.14286 14.4846 8.14286 14.3438V6.90625ZM5.57143 6.90625C5.57143 6.76536 5.61658 6.63023 5.69695 6.5306C5.77733 6.43097 5.88634 6.375 6 6.375C6.11366 6.375 6.22267 6.43097 6.30305 6.5306C6.38342 6.63023 6.42857 6.76536 6.42857 6.90625V14.3438C6.42857 14.4846 6.38342 14.6198 6.30305 14.7194C6.22267 14.819 6.11366 14.875 6 14.875C5.88634 14.875 5.77733 14.819 5.69695 14.7194C5.61658 14.6198 5.57143 14.4846 5.57143 14.3438V6.90625ZM3 6.90625C3 6.76536 3.04515 6.63023 3.12553 6.5306C3.2059 6.43097 3.31491 6.375 3.42857 6.375C3.54224 6.375 3.65124 6.43097 3.73162 6.5306C3.81199 6.63023 3.85714 6.76536 3.85714 6.90625V14.3438C3.85714 14.4846 3.81199 14.6198 3.73162 14.7194C3.65124 14.819 3.54224 14.875 3.42857 14.875C3.31491 14.875 3.2059 14.819 3.12553 14.7194C3.04515 14.6198 3 14.4846 3 14.3438V6.90625ZM11.5714 1.06251H8.35714L8.10536 0.441607C8.05202 0.308866 7.96986 0.197207 7.86812 0.119191C7.76638 0.0411758 7.6491 -0.000100538 7.52946 5.82141e-06H4.46786C4.34849 -0.000562966 4.23142 0.0405594 4.13004 0.118662C4.02866 0.196764 3.94708 0.308687 3.89464 0.441607L3.64286 1.06251H0.428571C0.314907 1.06251 0.205898 1.11848 0.125526 1.2181C0.0451529 1.31773 0 1.45286 0 1.59376L0 2.65626C0 2.79715 0.0451529 2.93228 0.125526 3.03191C0.205898 3.13153 0.314907 3.1875 0.428571 3.1875H11.5714C11.6851 3.1875 11.7941 3.13153 11.8745 3.03191C11.9548 2.93228 12 2.79715 12 2.65626V1.59376C12 1.45286 11.9548 1.31773 11.8745 1.2181C11.7941 1.11848 11.6851 1.06251 11.5714 1.06251Z" fill="#7D1EDB"/>
</svg>
