<svg width="17" height="16" viewBox="0 0 17 16" fill="none" xmlns="http://www.w3.org/2000/svg">
<path d="M16.5278 9H14.1667V12L13.2222 11.3344L12.2778 12V9H9.91667C9.65694 9 9.44444 9.225 9.44444 9.5V15.5C9.44444 15.775 9.65694 16 9.91667 16H16.5278C16.7875 16 17 15.775 17 15.5V9.5C17 9.225 16.7875 9 16.5278 9ZM5.19444 7H11.8056C12.0653 7 12.2778 6.775 12.2778 6.5V0.5C12.2778 0.225 12.0653 0 11.8056 0H9.44444V3L8.5 2.33437L7.55556 3V0H5.19444C4.93472 0 4.72222 0.225 4.72222 0.5V6.5C4.72222 6.775 4.93472 7 5.19444 7ZM7.08333 9H4.72222V12L3.77778 11.3344L2.83333 12V9H0.472222C0.2125 9 0 9.225 0 9.5V15.5C0 15.775 0.2125 16 0.472222 16H7.08333C7.34306 16 7.55556 15.775 7.55556 15.5V9.5C7.55556 9.225 7.34306 9 7.08333 9Z" fill="#8C8C8C"/>
</svg>
