<svg width="8" height="25" viewBox="0 0 8 25" fill="none" xmlns="http://www.w3.org/2000/svg">
<path d="M3.51562 8.59375C5.45898 8.59375 7.03125 10.166 7.03125 12.1094C7.03125 14.0527 5.45898 15.625 3.51562 15.625C1.57227 15.625 0 14.0527 0 12.1094C0 10.166 1.57227 8.59375 3.51562 8.59375ZM0 3.51562C0 5.45898 1.57227 7.03125 3.51562 7.03125C5.45898 7.03125 7.03125 5.45898 7.03125 3.51562C7.03125 1.57227 5.45898 0 3.51562 0C1.57227 0 0 1.57227 0 3.51562ZM0 20.7031C0 22.6465 1.57227 24.2188 3.51562 24.2188C5.45898 24.2188 7.03125 22.6465 7.03125 20.7031C7.03125 18.7598 5.45898 17.1875 3.51562 17.1875C1.57227 17.1875 0 18.7598 0 20.7031Z" fill="#7D1EDB"/>
</svg>
