<svg width="17" height="16" viewBox="0 0 17 16" fill="none" xmlns="http://www.w3.org/2000/svg">
<path d="M5.1 8C6.74422 8 8.075 6.21071 8.075 4C8.075 1.78929 6.74422 0 5.1 0C3.45578 0 2.125 1.78929 2.125 4C2.125 6.21071 3.45578 8 5.1 8ZM7.14 9.14286H6.91953C6.36703 9.5 5.75344 9.71429 5.1 9.71429C4.44656 9.71429 3.83563 9.5 3.28047 9.14286H3.06C1.37063 9.14286 0 10.9857 0 13.2571V14.2857C0 15.2321 0.571094 16 1.275 16H8.925C9.62891 16 10.2 15.2321 10.2 14.2857V13.2571C10.2 10.9857 8.82938 9.14286 7.14 9.14286ZM12.75 8C14.1578 8 15.3 6.46429 15.3 4.57143C15.3 2.67857 14.1578 1.14286 12.75 1.14286C11.3422 1.14286 10.2 2.67857 10.2 4.57143C10.2 6.46429 11.3422 8 12.75 8ZM14.025 9.14286H13.9241C13.5548 9.31429 13.1644 9.42857 12.75 9.42857C12.3356 9.42857 11.9452 9.31429 11.5759 9.14286H11.475C10.9331 9.14286 10.4338 9.35357 9.99547 9.69286C10.6436 10.6321 11.05 11.8786 11.05 13.2571V14.6286C11.05 14.7071 11.0367 14.7821 11.0341 14.8571H15.725C16.4289 14.8571 17 14.0893 17 13.1429C17 10.9321 15.6692 9.14286 14.025 9.14286Z" fill="#8C8C8C"/>
</svg>
