<svg width="20" height="12" viewBox="0 0 20 12" fill="none" xmlns="http://www.w3.org/2000/svg">
<path d="M19.8792 5.54375C17.9962 2.23719 14.2684 0 10 0C5.73159 0 2.00276 2.23875 0.120815 5.54406C0.0413845 5.68547 0 5.8417 0 6.00016C0 6.15861 0.0413845 6.31484 0.120815 6.45625C2.0038 9.76281 5.73159 12 10 12C14.2684 12 17.9972 9.76125 19.8792 6.45594C19.9586 6.31453 20 6.1583 20 5.99984C20 5.84139 19.9586 5.68516 19.8792 5.54375ZM10 10.5C9.01109 10.5 8.04439 10.2361 7.22214 9.74161C6.3999 9.24715 5.75903 8.54434 5.38059 7.72208C5.00215 6.89981 4.90314 5.99501 5.09606 5.12209C5.28899 4.24918 5.7652 3.44736 6.46446 2.81802C7.16372 2.18868 8.05464 1.7601 9.02455 1.58647C9.99445 1.41283 10.9998 1.50195 11.9134 1.84254C12.8271 2.18314 13.6079 2.75991 14.1574 3.49993C14.7068 4.23995 15 5.10998 15 6C15.0003 6.59103 14.8712 7.17632 14.6201 7.72242C14.3689 8.26851 14.0006 8.7647 13.5363 9.18262C13.0719 9.60054 12.5206 9.932 11.9138 10.158C11.307 10.3841 10.6567 10.5003 10 10.5ZM10 3C9.70248 3.00374 9.40687 3.04358 9.12118 3.11844C9.35667 3.40646 9.46968 3.7609 9.43971 4.11748C9.40973 4.47406 9.23877 4.80917 8.95781 5.06203C8.67685 5.31489 8.30451 5.46876 7.90831 5.49574C7.51211 5.52271 7.11828 5.42101 6.79826 5.20906C6.61602 5.81331 6.64892 6.45377 6.89231 7.04031C7.13571 7.62685 7.57735 8.12993 8.15507 8.47874C8.73279 8.82754 9.4175 9.00452 10.1128 8.98475C10.8082 8.96498 11.4791 8.74946 12.0312 8.36853C12.5833 7.9876 12.9888 7.46044 13.1906 6.86125C13.3923 6.26205 13.3803 5.62099 13.156 5.0283C12.9318 4.43561 12.5066 3.92114 11.9405 3.55728C11.3744 3.19343 10.6957 2.99853 10 3Z" fill="#7D1EDB"/>
</svg>
