<svg width="60" height="60" viewBox="0 0 60 60" fill="none" xmlns="http://www.w3.org/2000/svg">
<rect width="60" height="60" rx="8" fill="#FFE9E9"/>
<mask id="mask0_5594_38845" style="mask-type:alpha" maskUnits="userSpaceOnUse" x="10" y="10" width="40" height="40">
<rect x="10" y="10" width="40" height="40" fill="#D9D9D9"/>
</mask>
<g mask="url(#mask0_5594_38845)">
<path d="M22.6 39.7335L30 32.3335L37.4 39.7335L39.7335 37.4L32.3335 30L39.7335 22.6L37.4 20.2665L30 27.6665L22.6 20.2665L20.2665 22.6L27.6665 30L20.2665 37.4L22.6 39.7335ZM30 50C27.2557 50 24.6668 49.475 22.2335 48.425C19.8002 47.375 17.6778 45.9445 15.8665 44.1335C14.0555 42.3222 12.625 40.1998 11.575 37.7665C10.525 35.3332 10 32.7443 10 30C10 27.2333 10.525 24.6333 11.575 22.2C12.625 19.7667 14.0555 17.65 15.8665 15.85C17.6778 14.05 19.8002 12.625 22.2335 11.575C24.6668 10.525 27.2557 10 30 10C32.7667 10 35.3667 10.525 37.8 11.575C40.2333 12.625 42.35 14.05 44.15 15.85C45.95 17.65 47.375 19.7667 48.425 22.2C49.475 24.6333 50 27.2333 50 30C50 32.7443 49.475 35.3332 48.425 37.7665C47.375 40.1998 45.95 42.3222 44.15 44.1335C42.35 45.9445 40.2333 47.375 37.8 48.425C35.3667 49.475 32.7667 50 30 50ZM30 46.6665C34.6443 46.6665 38.5832 45.0443 41.8165 41.8C45.0498 38.5557 46.6665 34.6223 46.6665 30C46.6665 25.3557 45.0498 21.4168 41.8165 18.1835C38.5832 14.9502 34.6443 13.3335 30 13.3335C25.3777 13.3335 21.4443 14.9502 18.2 18.1835C14.9557 21.4168 13.3335 25.3557 13.3335 30C13.3335 34.6223 14.9557 38.5557 18.2 41.8C21.4443 45.0443 25.3777 46.6665 30 46.6665Z" fill="#EB0000"/>
</g>
</svg>
