<svg width="17" height="16" viewBox="0 0 17 16" fill="none" xmlns="http://www.w3.org/2000/svg">
<path d="M0.41213 4.62579L8.14639 7.92793C8.37217 8.02449 8.6275 8.02449 8.85328 7.92793L16.5875 4.62579C17.137 4.39111 17.137 3.60956 16.5875 3.37487L8.85361 0.0724197C8.74268 0.0246988 8.62214 0 8.50017 0C8.3782 0 8.25765 0.0246988 8.14672 0.0724197L0.41213 3.37456C-0.137377 3.60924 -0.137377 4.39111 0.41213 4.62579ZM16.5879 7.3845L14.6591 6.5617L9.29222 8.85135C9.0412 8.95854 8.77459 9.01291 8.5 9.01291C8.22541 9.01291 7.95913 8.95854 7.70778 8.85135L2.34121 6.5617L0.41213 7.3845C-0.137377 7.61887 -0.137377 8.40011 0.41213 8.63448L8.14639 11.9341C8.37217 12.0304 8.6275 12.0304 8.85328 11.9341L16.5879 8.63448C17.1374 8.40011 17.1374 7.61887 16.5879 7.3845ZM16.5879 11.3782L14.6664 10.5585L9.29222 12.8513C9.0412 12.9585 8.77459 13.0129 8.5 13.0129C8.22541 13.0129 7.95913 12.9585 7.70778 12.8513L2.33391 10.5585L0.41213 11.3782C-0.137377 11.6126 -0.137377 12.3938 0.41213 12.6282L8.14639 15.9278C8.37217 16.0241 8.6275 16.0241 8.85328 15.9278L16.5879 12.6282C17.1374 12.3938 17.1374 11.6126 16.5879 11.3782Z" fill="#8C8C8C"/>
</svg>
