<svg width="30" height="38" viewBox="0 0 30 38" fill="none" xmlns="http://www.w3.org/2000/svg">
<path d="M0 31.6864V27.9586H3.72781V14.9112C3.72781 12.3328 4.50444 10.0418 6.05769 8.03809C7.61095 6.03439 9.63018 4.72189 12.1154 4.10059V2.79586C12.1154 2.01923 12.3872 1.3591 12.9308 0.815459C13.4745 0.27182 14.1346 0 14.9112 0C15.6879 0 16.348 0.27182 16.8916 0.815459C17.4353 1.3591 17.7071 2.01923 17.7071 2.79586V4.10059C20.1923 4.72189 22.2115 6.03439 23.7648 8.03809C25.318 10.0418 26.0947 12.3328 26.0947 14.9112V27.9586H29.8225V31.6864H0ZM14.9112 37.2781C13.8861 37.2781 13.0085 36.9131 12.2785 36.1831C11.5484 35.453 11.1834 34.5754 11.1834 33.5503H18.6391C18.6391 34.5754 18.274 35.453 17.544 36.1831C16.814 36.9131 15.9364 37.2781 14.9112 37.2781Z" fill="#7D1EDB"/>
</svg>
