<svg width="127" height="32" viewBox="0 0 127 32" fill="none" xmlns="http://www.w3.org/2000/svg">
<path d="M16.0668 32C13.1293 32 10.4293 31.3176 7.96662 29.9527C5.53361 28.5879 3.59017 26.6889 2.1363 24.2559C0.7121 21.7932 0 19.0338 0 15.9777C0 12.9216 0.7121 10.1771 2.1363 7.74409C3.59017 5.31108 5.53361 3.41215 7.96662 2.04729C10.4293 0.682429 13.1293 0 16.0668 0C19.0042 0 21.6894 0.682429 24.1224 2.04729C26.5851 3.41215 28.5137 5.31108 29.9082 7.74409C31.3324 10.1771 32.0445 12.9216 32.0445 15.9777C32.0445 19.0338 31.3324 21.7932 29.9082 24.2559C28.484 26.6889 26.5554 28.5879 24.1224 29.9527C21.6894 31.3176 19.0042 32 16.0668 32ZM16.0668 25.057C18.5591 25.057 20.5471 24.2262 22.0306 22.5647C23.5438 20.9031 24.3004 18.7075 24.3004 15.9777C24.3004 13.2184 23.5438 11.0227 22.0306 9.39082C20.5471 7.72925 18.5591 6.89847 16.0668 6.89847C13.5447 6.89847 11.5271 7.71442 10.0139 9.34631C8.53037 10.9782 7.7886 13.1887 7.7886 15.9777C7.7886 18.7371 8.53037 20.9476 10.0139 22.6092C11.5271 24.2411 13.5447 25.057 16.0668 25.057Z" fill="url(#paint0_linear_4583_29596)"/>
<path d="M52.2118 31.6885L45.7138 19.8943H43.8891V31.6885H36.2785V0.445062H49.0518C51.5145 0.445062 53.6063 0.875289 55.3272 1.73574C57.0778 2.5962 58.3833 3.78303 59.2437 5.29624C60.1042 6.77978 60.5344 8.44135 60.5344 10.2809C60.5344 12.3579 59.941 14.2123 58.7542 15.8442C57.597 17.4761 55.8761 18.6333 53.5914 19.3157L60.8015 31.6885H52.2118ZM43.8891 14.509H48.6067C50.0013 14.509 51.0398 14.1678 51.7222 13.4854C52.4343 12.803 52.7903 11.8387 52.7903 10.5925C52.7903 9.40566 52.4343 8.47103 51.7222 7.7886C51.0398 7.10617 50.0013 6.76495 48.6067 6.76495H43.8891V14.509Z" fill="url(#paint1_linear_4583_29596)"/>
<path d="M86.0518 10.3255C85.4881 9.28697 84.6721 8.50069 83.604 7.96662C82.5655 7.40287 81.3342 7.121 79.91 7.121C77.4473 7.121 75.4742 7.93695 73.9906 9.56885C72.5071 11.1711 71.7653 13.3222 71.7653 16.0223C71.7653 18.9003 72.5368 21.1553 74.0796 22.7872C75.6522 24.3894 77.8033 25.1905 80.533 25.1905C82.4023 25.1905 83.9749 24.7158 85.2507 23.7663C86.5562 22.8169 87.5057 21.452 88.0991 19.6718H78.4412V14.064H94.9976V21.1405C94.4338 23.0394 93.4695 24.8048 92.1047 26.4367C90.7695 28.0686 89.0634 29.389 86.9864 30.3978C84.9095 31.4066 82.5655 31.911 79.9545 31.911C76.8687 31.911 74.1093 31.2434 71.6763 29.9082C69.273 28.5433 67.3889 26.6592 66.024 24.2559C64.6888 21.8526 64.0212 19.108 64.0212 16.0223C64.0212 12.9365 64.6888 10.1919 66.024 7.7886C67.3889 5.35559 69.273 3.47149 71.6763 2.1363C74.0796 0.771441 76.8242 0.0890114 79.91 0.0890114C83.6485 0.0890114 86.7936 0.993972 89.3453 2.80389C91.9266 4.61382 93.6327 7.121 94.4635 10.3255H86.0518Z" fill="url(#paint2_linear_4583_29596)"/>
<path d="M126.908 31.9629H94.9453L99.5195 22.8311H122.333L126.908 31.9629ZM121.193 20.5479H100.657L105.212 11.416H116.639L121.193 20.5479ZM115.501 9.13281H106.352L110.927 0L115.501 9.13281Z" fill="url(#paint3_linear_4583_29596)"/>
<defs>
<linearGradient id="paint0_linear_4583_29596" x1="94.9976" y1="16" x2="0" y2="16" gradientUnits="userSpaceOnUse">
<stop stop-color="#756FCC"/>
<stop offset="1" stop-color="#B58CEC"/>
</linearGradient>
<linearGradient id="paint1_linear_4583_29596" x1="94.9976" y1="16" x2="0" y2="16" gradientUnits="userSpaceOnUse">
<stop stop-color="#756FCC"/>
<stop offset="1" stop-color="#B58CEC"/>
</linearGradient>
<linearGradient id="paint2_linear_4583_29596" x1="94.9976" y1="16" x2="0" y2="16" gradientUnits="userSpaceOnUse">
<stop stop-color="#756FCC"/>
<stop offset="1" stop-color="#B58CEC"/>
</linearGradient>
<linearGradient id="paint3_linear_4583_29596" x1="110.916" y1="-5.68229" x2="110.916" y2="36.9349" gradientUnits="userSpaceOnUse">
<stop stop-color="#85C3C2"/>
<stop offset="0.354701" stop-color="#69A0AB"/>
<stop offset="0.636752" stop-color="#6B74BB"/>
<stop offset="1" stop-color="#EDC0F3"/>
</linearGradient>
</defs>
</svg>
