<svg width="17" height="16" viewBox="0 0 17 16" fill="none" xmlns="http://www.w3.org/2000/svg">
<path d="M3.4 11H0.85C0.380641 11 0 11.4478 0 12V15C0 15.5522 0.380641 16 0.85 16H3.4C3.86936 16 4.25 15.5522 4.25 15V12C4.25 11.4478 3.86936 11 3.4 11ZM2.7625 8.5H7.8625V10H9.1375V8.5H14.2375V10H15.5125V8.20031C15.5125 7.53875 15.0548 7 14.4922 7H9.1375V5H10.2C10.6694 5 11.05 4.55219 11.05 4V1C11.05 0.447812 10.6694 0 10.2 0H6.8C6.33064 0 5.95 0.447812 5.95 1V4C5.95 4.55219 6.33064 5 6.8 5H7.8625V7H2.50777C1.94517 7 1.4875 7.53844 1.4875 8.20031V10H2.7625V8.5ZM9.775 11H7.225C6.75564 11 6.375 11.4478 6.375 12V15C6.375 15.5522 6.75564 16 7.225 16H9.775C10.2444 16 10.625 15.5522 10.625 15V12C10.625 11.4478 10.2444 11 9.775 11ZM16.15 11H13.6C13.1306 11 12.75 11.4478 12.75 12V15C12.75 15.5522 13.1306 16 13.6 16H16.15C16.6194 16 17 15.5522 17 15V12C17 11.4478 16.6194 11 16.15 11Z" fill="#8C8C8C"/>
</svg>
