<svg width="20" height="20" viewBox="0 0 20 20" fill="none" xmlns="http://www.w3.org/2000/svg">
<path d="M2.5 4.9974H4.16667M4.16667 4.9974H17.5M4.16667 4.9974L4.16667 16.6641C4.16667 17.1061 4.34226 17.53 4.65482 17.8426C4.96738 18.1551 5.39131 18.3307 5.83333 18.3307H14.1667C14.6087 18.3307 15.0326 18.1551 15.3452 17.8426C15.6577 17.53 15.8333 17.1061 15.8333 16.6641V4.9974M6.66667 4.9974V3.33073C6.66667 2.8887 6.84226 2.46478 7.15482 2.15222C7.46738 1.83966 7.89131 1.66406 8.33333 1.66406H11.6667C12.1087 1.66406 12.5326 1.83966 12.8452 2.15222C13.1577 2.46478 13.3333 2.8887 13.3333 3.33073V4.9974" stroke="white" stroke-width="2" stroke-linecap="round" stroke-linejoin="round"/>
</svg>
