<svg width="46" height="35" viewBox="0 0 46 35" fill="none" xmlns="http://www.w3.org/2000/svg">
<path d="M38.64 15.2031C38.9347 14.3672 39.1 13.4531 39.1 12.5C39.1 8.35938 36.0094 5 32.2 5C30.7841 5 29.4616 5.46875 28.3691 6.26562C26.3781 2.51562 22.6622 0 18.4 0C12.0462 0 6.9 5.59375 6.9 12.5C6.9 12.7109 6.90719 12.9219 6.91437 13.1328C2.88937 14.6719 0 18.8438 0 23.75C0 29.9609 4.63594 35 10.35 35H36.8C41.8816 35 46 30.5234 46 25C46 20.1641 42.8375 16.125 38.64 15.2031ZM28.2756 20H23.575V28.75C23.575 29.4375 23.0575 30 22.425 30H18.975C18.3425 30 17.825 29.4375 17.825 28.75V20H13.1244C12.0966 20 11.5863 18.6563 12.3122 17.8672L19.8878 9.63281C20.3334 9.14844 21.0666 9.14844 21.5122 9.63281L29.0878 17.8672C29.8138 18.6563 29.2962 20 28.2756 20Z" fill="#808080"/>
</svg>
