<svg width="100" height="48" viewBox="0 0 100 48" fill="none" xmlns="http://www.w3.org/2000/svg">
<rect x="0.5" y="0.5" width="99" height="47" rx="23.5" stroke="#7D1EDB"/>
<path d="M23.024 20.5122V23.7762H26.864V25.2642H23.024V28.6722H27.344V30.1602H21.2V19.0242H27.344V20.5122H23.024ZM28.9826 25.7122C28.9826 24.8268 29.164 24.0428 29.5266 23.3602C29.9 22.6775 30.4013 22.1495 31.0306 21.7762C31.6706 21.3922 32.38 21.2002 33.1586 21.2002C33.7346 21.2002 34.3 21.3282 34.8546 21.5842C35.42 21.8295 35.868 22.1602 36.1986 22.5762V18.3202H38.0386V30.1602H36.1986V28.8322C35.9 29.2588 35.484 29.6108 34.9506 29.8882C34.428 30.1655 33.8253 30.3042 33.1426 30.3042C32.3746 30.3042 31.6706 30.1122 31.0306 29.7282C30.4013 29.3335 29.9 28.7895 29.5266 28.0962C29.164 27.3922 28.9826 26.5975 28.9826 25.7122ZM36.1986 25.7442C36.1986 25.1362 36.0706 24.6082 35.8146 24.1602C35.5693 23.7122 35.244 23.3708 34.8386 23.1362C34.4333 22.9015 33.996 22.7842 33.5266 22.7842C33.0573 22.7842 32.62 22.9015 32.2146 23.1362C31.8093 23.3602 31.4786 23.6962 31.2226 24.1442C30.9773 24.5815 30.8546 25.1042 30.8546 25.7122C30.8546 26.3202 30.9773 26.8535 31.2226 27.3122C31.4786 27.7708 31.8093 28.1228 32.2146 28.3682C32.6306 28.6028 33.068 28.7202 33.5266 28.7202C33.996 28.7202 34.4333 28.6028 34.8386 28.3682C35.244 28.1335 35.5693 27.7922 35.8146 27.3442C36.0706 26.8855 36.1986 26.3522 36.1986 25.7442ZM41.3624 20.1762C41.0317 20.1762 40.7544 20.0642 40.5304 19.8402C40.3064 19.6162 40.1944 19.3388 40.1944 19.0082C40.1944 18.6775 40.3064 18.4002 40.5304 18.1762C40.7544 17.9522 41.0317 17.8402 41.3624 17.8402C41.6824 17.8402 41.9544 17.9522 42.1784 18.1762C42.4024 18.4002 42.5144 18.6775 42.5144 19.0082C42.5144 19.3388 42.4024 19.6162 42.1784 19.8402C41.9544 20.0642 41.6824 20.1762 41.3624 20.1762ZM42.2584 21.3442V30.1602H40.4344V21.3442H42.2584ZM46.7811 22.8322V27.7122C46.7811 28.0428 46.8558 28.2828 47.0051 28.4322C47.1651 28.5708 47.4318 28.6402 47.8051 28.6402H48.9251V30.1602H47.4851C46.6638 30.1602 46.0345 29.9682 45.5971 29.5842C45.1598 29.2002 44.9411 28.5762 44.9411 27.7122V22.8322H43.9011V21.3442H44.9411V19.1522H46.7811V21.3442H48.9251V22.8322H46.7811Z" fill="#7D1EDB"/>
<path d="M69 30.8264H76.5M72.75 17.0764C73.0815 16.7448 73.5312 16.5586 74 16.5586C74.2321 16.5586 74.462 16.6043 74.6765 16.6932C74.891 16.782 75.0858 16.9122 75.25 17.0764C75.4142 17.2405 75.5444 17.4354 75.6332 17.6499C75.722 17.8643 75.7678 18.0942 75.7678 18.3264C75.7678 18.5585 75.722 18.7884 75.6332 19.0029C75.5444 19.2173 75.4142 19.4122 75.25 19.5764L64.8333 29.993L61.5 30.8264L62.3333 27.493L72.75 17.0764Z" stroke="#7D1EDB" stroke-width="1.75" stroke-linecap="round" stroke-linejoin="round"/>
</svg>
