<svg width="24" height="24" viewBox="0 0 24 24" fill="none" xmlns="http://www.w3.org/2000/svg">
<rect width="24" height="24" rx="12" fill="#B68DEC"/>
<g clip-path="url(#clip0_4596_70202)">
<path d="M11.333 6.66812H6.66634C6.31272 6.66812 5.97358 6.8086 5.72353 7.05864C5.47348 7.30869 5.33301 7.64783 5.33301 8.00145V17.3348C5.33301 17.6884 5.47348 18.0275 5.72353 18.2776C5.97358 18.5276 6.31272 18.6681 6.66634 18.6681H15.9997C16.3533 18.6681 16.6924 18.5276 16.9425 18.2776C17.1925 18.0275 17.333 17.6884 17.333 17.3348V12.6681M16.333 5.66812C16.5982 5.4029 16.9579 5.25391 17.333 5.25391C17.7081 5.25391 18.0678 5.4029 18.333 5.66812C18.5982 5.93334 18.7472 6.29305 18.7472 6.66812C18.7472 7.04319 18.5982 7.4029 18.333 7.66812L11.9997 14.0015L9.33301 14.6681L9.99967 12.0015L16.333 5.66812Z" stroke="white" stroke-width="1.6" stroke-linecap="round" stroke-linejoin="round"/>
</g>
<defs>
<clipPath id="clip0_4596_70202">
<rect width="16" height="16" fill="white" transform="translate(4 4)"/>
</clipPath>
</defs>
</svg>
