<svg width="426" height="304" viewBox="0 0 426 304" fill="none" xmlns="http://www.w3.org/2000/svg">
<path d="M175.89 235.108C254.119 235.108 317.537 189.944 317.537 134.232C317.537 78.5193 254.119 33.3555 175.89 33.3555C97.6599 33.3555 34.2422 78.5193 34.2422 134.232C34.2422 189.944 97.6599 235.108 175.89 235.108Z" fill="#F5F5FF"/>
<path d="M328.8 276.308C364.511 276.308 393.461 272.295 393.461 267.345C393.461 262.395 364.511 258.383 328.8 258.383C293.089 258.383 264.139 262.395 264.139 267.345C264.139 272.295 293.089 276.308 328.8 276.308Z" fill="#DFDFEB"/>
<path d="M193.271 281.607C257.786 281.607 310.085 277.158 310.085 271.669C310.085 266.18 257.786 261.73 193.271 261.73C128.756 261.73 76.457 266.18 76.457 271.669C76.457 277.158 128.756 281.607 193.271 281.607Z" fill="#DFDFEB"/>
<path d="M215.604 95.5171C215.604 95.5171 213.443 108.052 197.692 124.187C197.692 124.187 195.951 122.035 198.963 113.117C201.974 104.2 214.706 92.4807 215.604 95.5171Z" fill="#7E9E6E"/>
<path d="M215.604 95.5195C215.604 95.5195 201.431 105.648 197.692 124.19C197.692 124.19 196.967 130.548 199.148 136.058" stroke="black" stroke-miterlimit="10" stroke-linecap="round"/>
<path d="M177.506 105.643C177.506 105.643 181.483 102.633 174.642 95.1152C168.143 87.973 161.263 81.5695 147.816 79.2227C147.816 79.2227 151.875 97.4195 160.637 101.757C169.399 106.094 177.506 105.643 177.506 105.643Z" fill="#7E9E6E"/>
<path d="M144.868 119.024C144.868 119.024 158.897 122.082 182.692 114.149C182.692 114.149 181.217 111.691 170.584 110.865C159.952 110.038 142.099 116.982 144.868 119.024Z" fill="#7E9E6E"/>
<path d="M144.867 119.023C144.867 119.023 161.7 110.12 182.691 114.147C182.691 114.147 184.85 114.687 187.049 117.621" stroke="black" stroke-miterlimit="10" stroke-linecap="round"/>
<path d="M156.496 131.721C156.496 131.721 171.51 141.594 195.304 133.662C195.304 133.662 190.676 125.299 180.044 124.472C169.412 123.645 153.727 129.679 156.496 131.721Z" fill="#7E9E6E"/>
<path d="M156.496 131.723C156.496 131.723 172.678 124.179 195.303 133.664C195.303 133.664 197.964 134.847 200.163 137.781" stroke="black" stroke-miterlimit="10" stroke-linecap="round"/>
<path d="M207.315 83.6494C207.315 83.6494 211.747 83.1192 200.934 93.1117C190.724 102.548 192.022 102.621 192.022 102.621C192.022 102.621 195.896 88.5019 207.315 83.6494Z" fill="black"/>
<path d="M184.594 107.4C184.594 107.4 187.903 108.675 193.872 103.202C199.841 97.7297 202.066 85.5332 207.315 83.6484C207.315 83.6484 194.146 87.8984 184.594 107.4Z" fill="#7E9E6E"/>
<path d="M206.296 149.304C199.563 135.756 190.216 120.364 177.506 105.643C177.506 105.643 174.384 101.558 163.536 90.9674C152.688 80.3766 147.816 79.2227 147.816 79.2227" stroke="black" stroke-miterlimit="10" stroke-linecap="round"/>
<path d="M205.759 84.2969C205.759 84.2969 193.229 89.7598 184.594 107.399C182.502 111.673 185.005 115.054 187.05 117.621" stroke="black" stroke-miterlimit="10" stroke-linecap="round"/>
<path d="M320.023 230.525C320.023 230.525 309.55 238.246 285.418 232.579C285.418 232.579 285.482 228.713 294.142 224.993C302.804 221.274 321.392 226.944 320.023 230.525Z" fill="#7E9E6E"/>
<path d="M319.274 229.82C319.274 229.82 302.746 224.302 285.526 232.161C285.526 232.161 279.948 235.307 276.764 240.305" stroke="black" stroke-miterlimit="10" stroke-linecap="round"/>
<path d="M285.104 213.539C285.104 213.539 289.877 214.988 291.954 205.042C293.927 195.594 295.078 186.27 289.086 174.016C289.086 174.016 276.722 187.98 278.351 197.613C279.979 207.246 285.104 213.539 285.104 213.539Z" fill="#7E9E6E"/>
<path d="M320.599 217.266C320.599 217.266 324.282 219.783 309.559 220.186C295.656 220.566 296.583 221.476 296.583 221.476C296.583 221.476 308.808 213.402 320.599 217.266Z" fill="black"/>
<path d="M287.844 220.186C287.844 220.186 289.493 223.323 297.592 223.133C305.692 222.944 315.408 215.232 320.599 217.267C320.599 217.267 307.889 211.799 287.844 220.186Z" fill="#7E9E6E"/>
<path d="M266.621 262.453C273.649 249.055 280.635 232.46 285.103 213.539C285.103 213.539 286.58 208.615 288.795 193.624C291.01 178.633 289.085 174.016 289.085 174.016" stroke="black" stroke-miterlimit="10" stroke-linecap="round"/>
<path d="M319.001 216.731C319.001 216.731 305.971 212.594 287.844 220.183C283.452 222.022 282.206 224.925 280.35 230.307" stroke="black" stroke-miterlimit="10" stroke-linecap="round"/>
<path d="M153.124 141.259C149.735 141.259 146.453 140.071 143.85 137.901L136.63 131.882C134.031 129.715 130.944 128.555 127.782 128.555H91.9452C88.693 128.555 86.0566 131.189 86.0566 134.438V141.259V264.057C86.0566 269.663 90.6057 274.208 96.2173 274.208H274.864C279.229 274.208 282.767 270.673 282.767 266.312V149.156C282.767 144.795 279.229 141.26 274.864 141.26H153.124V141.259Z" fill="#333969"/>
<path d="M282.766 266.975C282.766 266.975 270.608 244.191 269.392 241.574L236.164 173.945C235.329 172.147 233.526 170.998 231.543 170.998H108.067C103.578 170.998 97.0861 168.647 93.6392 165.774L88.6568 161.62C86.0582 159.454 82.9715 158.293 79.8094 158.293H45.7045C42.0743 158.293 39.6084 161.977 40.9953 165.329L82.2358 264.979C84.5477 270.565 90.0012 274.208 96.051 274.208H280.535C281.738 274.208 282.848 273.179 282.848 271.977L282.766 266.975Z" fill="#7584F1"/>
<path d="M232.541 177.426L281.299 272.116" stroke="black" stroke-miterlimit="10" stroke-linejoin="round"/>
<path d="M212.45 193.744H170.451C169.306 193.744 168.24 193.168 167.625 192.218C166.206 190.024 167.807 187.152 170.451 187.152H212.45C213.596 187.152 214.661 187.728 215.277 188.678C216.696 190.873 215.094 193.744 212.45 193.744Z" stroke="black" stroke-miterlimit="10" stroke-linejoin="round"/>
<path d="M133.887 226.289L166.587 245.753" stroke="black" stroke-miterlimit="10" stroke-linecap="round" stroke-linejoin="round"/>
<path d="M160.624 225.352L140.076 245.871" stroke="black" stroke-miterlimit="10" stroke-linecap="round" stroke-linejoin="round"/>
<path d="M173.524 242.402C176.26 232.523 167.867 221.583 154.779 217.966C141.691 214.349 128.864 219.425 126.128 229.304C123.393 239.183 131.786 250.124 144.874 253.74C157.962 257.357 170.789 252.281 173.524 242.402Z" stroke="black" stroke-miterlimit="10" stroke-linecap="round" stroke-linejoin="round"/>
<path d="M319.12 141.321C319.905 137.935 316.297 133.713 312.883 134.379C310.103 134.92 308.719 135.586 308.273 135.733C307.4 136.021 300.883 135.597 300.137 136.682C299.596 137.467 302.996 138.374 305.17 138.59C305.618 138.635 305.75 139.219 305.368 139.456C303.231 140.78 298.977 143.47 298.615 144.135C298.13 145.025 295.921 148.489 296.543 148.873C297.166 149.258 299.049 147.528 300.272 146.3C301.496 145.071 305.071 144.027 305.071 144.027C305.071 144.027 298.855 150.261 298.035 151.989C296.815 154.563 300.355 153.434 300.355 153.434C299.801 154.889 302.705 154.57 303.392 154.021C304.747 152.937 308.939 147.885 308.951 148.399C308.963 148.914 304.621 154.419 305.061 155.705C305.501 156.991 307.257 155.378 308.273 154.021C309.289 152.665 312.273 148.873 312.273 148.873C312.273 148.873 315.663 146.401 318.493 142.131C318.515 142.097 319.111 141.361 319.12 141.321Z" fill="#DB9C7F"/>
<path d="M300.51 153.293L306.442 146.23" stroke="black" stroke-miterlimit="10" stroke-linecap="round"/>
<path d="M274.528 121.287L295.866 107.987C295.998 107.901 296.124 107.805 296.243 107.701L303.279 100.468C304.811 99.1266 307.174 99.4391 308.303 101.132L311.752 106.3C312.482 107.395 312.508 108.814 311.817 109.934L306.864 117.961C306.5 118.552 305.966 119.014 305.328 119.287C301.343 120.992 286.121 127.416 277.041 129.978C274.786 130.615 272.594 128.781 272.792 126.448L273.014 123.821C273.101 122.788 273.659 121.854 274.528 121.287Z" fill="#9EC68A"/>
<path d="M323.669 254.18L322.541 261.838C322.541 261.838 301.398 269.952 303.359 270.07C305.32 270.187 335.705 268.421 335.705 268.421L333.917 254.518L323.669 254.18Z" fill="black"/>
<path d="M329.561 130.249C329.561 130.249 331.246 146.451 332.509 147.293C333.772 148.134 335.458 148.555 335.458 148.555L332.72 130.039L329.561 130.249Z" stroke="#424242" stroke-miterlimit="10"/>
<path d="M362.948 119.113C362.948 119.113 371.518 136.548 369.03 146.262L321.523 139.734L322.515 121.621L362.948 119.113Z" fill="black"/>
<path d="M364.254 122.645C364.254 122.645 357.539 135.068 344.689 136.061" stroke="#424242" stroke-miterlimit="10" stroke-linecap="round"/>
<path d="M353.504 133.41C353.504 133.41 356.107 141.463 363.663 141.629" stroke="#424242" stroke-miterlimit="10" stroke-linecap="round"/>
<path d="M321.524 139.734C321.524 139.734 308.797 185.004 308.467 199.578L317.766 255.723C317.766 255.723 326.638 260.129 335.877 256.568C336.256 256.422 331.193 227.449 330.837 197.617L357.398 142.095L321.524 139.734Z" fill="black"/>
<path d="M369.24 144.363L367.369 198.992L388.29 256.105C388.29 256.105 379.536 263.494 368.477 256.768L345.764 202.387L348.094 162.817L338.195 156.829L336.721 139.691L369.24 144.363Z" fill="black"/>
<path d="M332.477 134.378L342.562 141.97L357.02 125.844L321.9 130.856L330.494 142.241L332.477 134.378Z" fill="white"/>
<path d="M373.507 253.257L371.682 259.865C371.682 259.865 358.343 274.319 360.309 274.319C362.275 274.319 384.178 265.371 384.178 265.371L381.37 251.605L373.507 253.257Z" fill="black"/>
<path d="M361.242 126.84C361.242 126.84 367.011 141.008 362.855 200.441C362.855 200.441 377.426 232.479 384.981 257.82" stroke="#424242" stroke-miterlimit="10" stroke-linecap="round"/>
<path d="M340.038 158.246L325.496 198.714L331.732 257.822" stroke="#424242" stroke-miterlimit="10" stroke-linecap="round"/>
<path d="M276.615 129.28C276.615 129.28 276.898 130.697 273.757 131.779C270.616 132.862 268.768 132.518 268.768 132.518C268.768 132.518 261.722 124.215 261.409 123.922C261.096 123.629 261.629 120.436 263.713 119.157C264.979 118.381 269.888 119.647 273.549 120.761C276.101 121.537 277.676 124.091 277.247 126.722C277.079 127.756 276.869 128.715 276.615 129.28Z" fill="#DB9C7F"/>
<path d="M270.837 127.075C270.837 127.075 265.076 126.24 262.642 124.235C262.642 124.235 259.004 123.502 258.23 123.961C257.458 124.419 256.824 125.07 255.151 125.352C253.478 125.634 253.983 124.521 255.74 122.943C256.242 122.492 257.586 120.87 258.751 120.651C260.319 120.356 263.713 119.156 263.713 119.156L270.523 127.29" fill="#DB9C7F"/>
<path d="M268.769 132.516C268.769 132.516 266.434 133.981 265.612 133.94C264.791 133.901 264.015 133.411 263.814 132.063C263.814 132.063 259.464 132.861 260.842 129.572C260.842 129.572 258.214 129.146 258.144 127.433C258.144 127.433 255.81 126.271 256.321 124.409C256.831 122.546 264.154 122.715 264.154 122.715L271.924 126.656L268.769 132.516Z" fill="#DB9C7F"/>
<path d="M267.118 132.827C267.118 132.827 269.337 130.862 269.214 130.073C269.09 129.285 268.673 128.851 268.169 129.003C267.494 129.205 264.921 131.165 263.812 132.063" stroke="#1A1C30" stroke-width="0.7799" stroke-miterlimit="10" stroke-linecap="round" stroke-linejoin="round"/>
<path d="M260.842 129.574C260.842 129.574 266.752 128.653 266.807 127.778C266.862 126.903 266.448 125.749 265.214 125.995C263.747 126.286 259.54 127.293 258.145 127.266" stroke="#1A1C30" stroke-width="0.7799" stroke-miterlimit="10" stroke-linecap="round" stroke-linejoin="round"/>
<path d="M268.17 129.005C268.17 129.005 269.256 128.331 268.826 127.578C268.397 126.826 267.81 126.561 266.553 126.888" stroke="#1A1C30" stroke-width="0.7799" stroke-miterlimit="10" stroke-linecap="round" stroke-linejoin="round"/>
<path d="M258.025 124.799C258.025 124.799 258.349 124.378 258.806 123.949" stroke="#1A1C30" stroke-width="0.7799" stroke-miterlimit="10" stroke-linecap="round" stroke-linejoin="round"/>
<path d="M270.842 135.748L270.74 135.805C269.944 136.252 268.936 135.97 268.488 135.175L253.123 107.879L256.107 106.203L271.472 133.499C271.92 134.293 271.638 135.3 270.842 135.748Z" fill="#333969"/>
<path d="M260.72 112.266L262.009 114.557C262.359 115.178 262.201 115.93 261.656 116.236L258.87 117.801C258.325 118.108 257.6 117.852 257.25 117.231L255.904 114.841" fill="#333969"/>
<path d="M254.759 89.8482C249.429 79.9701 242.748 73.1702 238.502 72.8522L238.642 71.9141L236.423 73.3593C232.61 75.9536 234.637 87.5427 240.95 99.2437C247.263 110.945 255.472 118.327 259.286 115.733L261.372 114.343L260.771 113.54C262.238 109.008 259.948 99.468 254.759 89.8482Z" fill="#333969"/>
<path d="M261.207 114.465C265.273 112.348 263.582 101.069 257.429 89.2719C251.276 77.4751 242.992 69.6281 238.925 71.745C234.859 73.862 236.55 85.1413 242.703 96.9381C248.856 108.735 257.141 116.582 261.207 114.465Z" fill="#7584F1"/>
<path d="M254.87 89.8387C260.008 99.3618 262.025 108.543 259.376 110.345C256.726 112.148 250.414 105.89 245.276 96.3668C240.137 86.8437 238.121 77.6629 240.77 75.8602C243.419 74.0575 249.732 80.3156 254.87 89.8387Z" fill="#D3DDF7"/>
<path d="M270.837 127.075C270.837 127.075 265.076 126.24 262.642 124.235C262.642 124.235 259.004 123.502 258.23 123.961C257.458 124.419 256.824 125.07 255.151 125.352C253.478 125.634 253.983 124.521 255.74 122.943C256.242 122.492 257.586 120.87 258.751 120.651C260.319 120.356 263.713 119.156 263.713 119.156L270.523 127.29" fill="#DB9C7F"/>
<path d="M270.838 127.074C270.838 127.074 265.078 126.239 262.643 124.234C262.643 124.234 259.005 123.501 258.232 123.959C257.459 124.418 256.825 125.069 255.152 125.351" stroke="#1A1C30" stroke-width="0.7799" stroke-miterlimit="10" stroke-linecap="round" stroke-linejoin="round"/>
<path d="M254.869 89.8387C249.731 80.3156 243.418 74.0575 240.768 75.8602C240.559 76.0025 240.383 76.1958 240.23 76.4269C243.293 76.6129 248.651 82.4236 253.12 90.707C257.852 99.478 259.934 107.953 258.163 110.647C258.622 110.675 259.029 110.579 259.374 110.345C262.024 108.543 260.007 99.3612 254.869 89.8387Z" fill="#333969"/>
<path d="M251.293 86.1043C254.026 91.1702 255.099 96.0542 253.69 97.0131C252.28 97.9719 248.922 94.6431 246.189 89.5772C243.456 84.5114 242.383 79.6273 243.792 78.6685C245.201 77.7097 248.56 81.0385 251.293 86.1043Z" fill="white"/>
<path d="M353.493 102.408L349.255 87.298C347.699 81.7512 344.972 76.6185 341.368 72.1217C334.984 64.1557 318.217 64.8805 318.217 64.8805L305.317 74.1543C305.277 74.1756 305.237 74.1974 305.198 74.2193C297.602 78.4066 296.207 84.866 296.406 94.822L296.877 108.266L305.61 99.9335L307.814 102.953C307.804 102.866 307.796 102.785 307.789 102.707L308.832 104.348L307.814 102.953C308.123 105.727 309.571 112.791 316.302 116.091L320.136 122.119L319.12 130.451C355.107 143.525 364.07 117.852 364.07 117.852L353.493 102.408Z" fill="#9EC68A"/>
<path d="M303.764 98.5469L308.476 104.304C308.476 104.304 307.832 113.177 316.781 116.022" stroke="black" stroke-miterlimit="10" stroke-linecap="round"/>
<path d="M339.527 110.266L312.137 134.108C312.137 134.108 317.56 141.694 320.001 141.966L352.815 121.103" fill="#9EC68A"/>
<path d="M320.271 126.791C320.271 126.791 335.187 109.993 340.34 107.555" stroke="black" stroke-miterlimit="10" stroke-linecap="round"/>
<path d="M332.441 92.1445C332.441 92.1445 333.153 95.9038 337.933 109.112" stroke="black" stroke-miterlimit="10" stroke-linecap="round"/>
<path d="M323.797 139.799C323.797 139.799 354.441 120.292 354.713 114.602C354.984 108.912 346.984 82.4961 346.984 82.4961" stroke="black" stroke-miterlimit="10" stroke-linecap="round"/>
<path d="M327.154 112.162C327.154 112.162 334.53 112.856 336.815 106.168" stroke="black" stroke-miterlimit="10" stroke-linecap="round"/>
<path d="M297.285 107.183C297.285 107.183 299.319 105.151 301.353 107.454" stroke="black" stroke-miterlimit="10" stroke-linecap="round"/>
<path d="M273.152 120.594L277.491 118.562C277.491 118.562 282.78 124.32 280.881 129.265L275.593 130.822C275.593 130.822 278.034 125.404 273.152 120.594Z" fill="white"/>
<path d="M313.865 131.059C313.865 131.059 319.56 133.497 323.628 140.508L319.254 143.861C319.254 143.861 313.864 136.139 310.102 134.919L313.865 131.059Z" fill="white"/>
<path d="M309.086 64.0039L327.052 65.3245C327.052 65.3245 327.733 75.1978 316.883 83.905L312.011 79.1753L309.356 84.9337C309.356 84.9337 305.233 82.6166 304.678 75.9657L305.553 67.8909L309.086 64.0039Z" fill="white"/>
<path d="M318.217 64.8802C318.873 65.4384 319.184 66.2981 319.032 67.145C318.455 70.3583 316.711 78.1358 313.214 79.1129C308.791 80.349 306.033 71.6236 306.033 71.6236L308.238 56.3828L318.217 64.8802Z" fill="#DB9C7F"/>
<path d="M304.208 68.4926L304.154 70.7118C304.113 70.7343 303.357 77.2855 305.561 77.5378C314.771 75.8743 315.35 67.1501 316.139 58.4922C316.139 58.4922 303.314 66.764 304.208 68.4926Z" fill="black"/>
<path d="M288.876 52.154C288.876 52.154 286.631 73.524 299.919 77.2011C313.208 80.8789 316.391 59.2281 315.933 51.7405C315.475 44.253 312.135 41.4684 302.821 41.1328C289.042 40.6366 288.876 52.154 288.876 52.154Z" fill="#DB9C7F"/>
<path d="M300.813 62.4776C300.851 63.2467 300.485 63.8905 299.996 63.9155C299.507 63.9404 299.079 63.3367 299.042 62.5675C299.004 61.7984 299.37 61.1545 299.859 61.1296C300.348 61.1053 300.776 61.7084 300.813 62.4776Z" fill="black"/>
<path d="M302.272 58.5436C302.272 58.5436 297.882 60.4528 297.451 57.1367" stroke="black" stroke-miterlimit="10" stroke-linecap="round"/>
<path d="M292.124 58.5508C292.124 58.5508 290.673 61.0661 289.006 59.9486" stroke="black" stroke-miterlimit="10" stroke-linecap="round"/>
<path d="M289.791 63.0162C289.791 63.0162 290.621 62.7487 291.838 63.3907" stroke="black" stroke-miterlimit="10" stroke-linecap="round"/>
<path d="M302.803 70.9898C302.803 70.9898 304 69.8462 304.988 69.5859" stroke="black" stroke-miterlimit="10" stroke-linecap="round"/>
<path d="M293.822 65.4805C293.822 65.4805 293.058 67.2133 295.001 68.045" stroke="black" stroke-miterlimit="10" stroke-linecap="round"/>
<path d="M288.719 56.7472C288.719 56.7472 288.944 50.4897 291.72 46.9542C291.72 46.9542 295.535 55.6188 311.978 57.3862L316.765 56.3812C316.765 56.3812 318.725 46.348 311.857 42.3972C304.988 38.4464 294.476 40.6298 291.095 44.1823C285.362 50.2039 288.719 56.7472 288.719 56.7472Z" fill="black"/>
<path d="M308.787 56.2439L311.632 61.8582L313.644 55.5508L308.787 56.2439Z" fill="black"/>
<path d="M318.729 61.2748C317.91 64.2613 315.557 66.2355 313.476 65.6846C311.395 65.1338 310.371 62.2659 311.191 59.2794C312.01 56.2929 314.362 54.3187 316.444 54.8695C318.525 55.4204 319.548 58.2883 318.729 61.2748Z" fill="#DB9C7F"/>
<path d="M316.64 58.6742C316.64 58.6742 314.299 56.6618 313.02 60.3414C313.02 60.3414 314.387 61.7914 313.524 62.9296C313.524 62.9296 314.872 63.2355 315.537 62.0474" stroke="black" stroke-miterlimit="10" stroke-linecap="round" stroke-linejoin="round"/>
<path d="M315.627 60.0825C315.627 60.0825 315.497 59.2647 314.588 58.332" stroke="black" stroke-miterlimit="10" stroke-linecap="round" stroke-linejoin="round"/>
<path d="M316.766 65.5824C316.766 66.7023 315.858 67.61 314.737 67.61C313.616 67.61 312.707 66.7023 312.707 65.5824C312.707 64.4624 313.616 63.5547 314.737 63.5547C315.858 63.5547 316.766 64.4624 316.766 65.5824Z" fill="white"/>
<path d="M311.076 45.0137C311.076 45.0137 313.574 31.9824 319.402 34.4777C325.23 36.9729 327.867 49.4497 322.316 50.42C316.766 51.3904 312.464 48.7565 312.464 48.7565L311.076 45.0137Z" fill="black"/>
<path d="M311.146 48.7578C311.146 48.7578 320.791 56.7986 323.912 49.3816" stroke="black" stroke-miterlimit="10" stroke-linecap="round"/>
<path d="M347.591 162.509L336.428 156.215" stroke="#424242" stroke-miterlimit="10" stroke-linecap="round"/>
<path d="M94.1983 79.8527C106.261 80.181 116.241 89.8336 116.936 101.87C117.344 108.947 114.599 115.387 109.979 119.93C109.296 120.601 108.979 121.558 109.138 122.502L110.873 132.76L100.198 126.545C99.5897 126.191 98.8734 126.061 98.1833 126.201C95.5737 126.726 92.809 126.823 89.959 126.392C79.4131 124.796 71.1852 116.074 70.2127 105.462C68.9164 91.3177 80.2243 79.4721 94.1983 79.8527Z" fill="#D3DDF7"/>
<path d="M92.4748 111.358L92.409 105.761C93.2263 105.563 93.9719 105.304 94.6462 104.983C95.3198 104.663 95.9114 104.294 96.4195 103.874C96.9277 103.455 97.3531 102.985 97.6963 102.466C98.0389 101.947 98.2976 101.39 98.4753 100.794C98.6518 100.198 98.7406 99.5689 98.7406 98.9062C98.7406 97.9571 98.5081 97.0628 98.0438 96.2237C97.5801 95.3853 96.9167 94.7062 96.055 94.1869C95.1933 93.6683 94.166 93.4087 92.9726 93.4087C91.6909 93.4087 90.503 93.7625 89.4094 94.4684C88.3152 95.1755 87.4808 96.3782 86.9069 98.0781L86.3105 97.6805C86.8187 96.0693 87.6695 94.8326 88.8629 93.9717C90.0563 93.1102 91.4146 92.6797 92.9397 92.6797C94.2439 92.6797 95.3868 92.9563 96.3708 93.5078C97.3537 94.0598 98.1217 94.8053 98.6743 95.7434C99.2263 96.6815 99.5032 97.7358 99.5032 98.9062C99.5032 99.7896 99.3541 100.617 99.0559 101.39C98.7577 102.163 98.3371 102.869 97.7961 103.509C97.2545 104.15 96.5972 104.707 95.8237 105.182C95.0502 105.657 94.1776 106.016 93.2051 106.258L93.1393 111.358H92.4748ZM92.0774 115.531C92.0774 115.244 92.1547 115.007 92.3092 114.819C92.4638 114.632 92.6744 114.537 92.9391 114.537C93.2483 114.537 93.4692 114.626 93.6025 114.802C93.7351 114.979 93.8008 115.222 93.8008 115.531C93.8008 115.796 93.729 116.028 93.5854 116.226C93.4412 116.425 93.2257 116.524 92.9385 116.524C92.6506 116.524 92.4358 116.435 92.2916 116.259C92.1486 116.083 92.0774 115.84 92.0774 115.531Z" fill="black"/>
</svg>
